<svg id="Layer_1" data-name="Layer 1" xmlns="http://www.w3.org/2000/svg" viewBox="0 0 100 100">
  <title>twitter</title>
  <g>
    <path d="M85.4,14.6A50,50,0,1,0,100,50,49.9,49.9,0,0,0,85.4,14.6Z"/>
    <path d="M75.5,34.4a22.3,22.3,0,0,1-6,1.6,10.3,10.3,0,0,0,4.6-5.7,21.3,21.3,0,0,1-6.7,2.5,10.5,10.5,0,0,0-18.1,7,10.8,10.8,0,0,0,.3,2.4A29.7,29.7,0,0,1,28,31.5a10.2,10.2,0,0,0,3.2,13.8A10.1,10.1,0,0,1,26.5,44h0a9.7,9.7,0,0,0,.7,3.7,10.4,10.4,0,0,0,7.7,6.4,10.3,10.3,0,0,1-2.8.4l-2-.2A10.6,10.6,0,0,0,40,61.5a21.2,21.2,0,0,1-13,4.4H24.5a30.2,30.2,0,0,0,16.1,4.6c16.4,0,26.5-11.3,29.1-23.1a28.3,28.3,0,0,0,.7-6.2V39.8a21.7,21.7,0,0,0,5.2-5.3Z" fill="#fff"/>
  </g>
</svg>
