<svg id="Layer_1" data-name="Layer 1" xmlns="http://www.w3.org/2000/svg" viewBox="0 0 100 100">
  <title>instagram</title>
  <g>
    <path d="M85.4,14.6A50,50,0,1,0,100,50,49.8,49.8,0,0,0,85.4,14.6Z"/>
    <path d="M37.2,50A12.8,12.8,0,1,1,50,62.8,12.8,12.8,0,0,1,37.2,50Zm26-25.1H36.8A11.9,11.9,0,0,0,24.9,36.8V63.2A11.9,11.9,0,0,0,36.8,75.1H63.2A11.9,11.9,0,0,0,75.1,63.2V36.8A11.9,11.9,0,0,0,63.2,24.9Zm-26.4,3H63.2a8.9,8.9,0,0,1,8.9,8.9V63.2a8.9,8.9,0,0,1-8.9,8.9H36.8a8.9,8.9,0,0,1-8.9-8.9V36.8a8.9,8.9,0,0,1,8.9-8.9Zm29.1,3.7a2.6,2.6,0,1,0,2.6,2.6,2.6,2.6,0,0,0-2.6-2.6ZM66.2,50A16.2,16.2,0,1,0,50,66.2,16.2,16.2,0,0,0,66.2,50Z" fill="#fff"/>
  </g>
</svg>
